<svg xmlns="http://www.w3.org/2000/svg" viewBox="0 0 32 32" width="32" height="32">
  <!-- Deadlock's bolt on a shop-tile ground: dark teal room, teal rim, spirit-to-teal fill. -->
  <defs>
    <linearGradient id="room" x1="0" y1="0" x2="0" y2="1">
      <stop offset="0" stop-color="#1b3a35"/>
      <stop offset="1" stop-color="#0b1414"/>
    </linearGradient>
    <linearGradient id="bolt" x1="0" y1="0" x2="1" y2="1">
      <stop offset="0" stop-color="#9ce6f5"/>
      <stop offset=".45" stop-color="#62b6c8"/>
      <stop offset="1" stop-color="#a878e0"/>
    </linearGradient>
  </defs>
  <rect width="32" height="32" rx="7" fill="url(#room)"/>
  <rect x=".75" y=".75" width="30.5" height="30.5" rx="6.4" fill="none" stroke="#62b6c8" stroke-opacity=".55" stroke-width="1.5"/>
  <g transform="translate(5 5.5) scale(.4583)">
    <path fill="url(#bolt)" d="M25.946 44.938c-.664.845-2.021.375-2.021-.698V33.937a2.26 2.26 0 0 0-2.262-2.262H10.287c-.92 0-1.456-1.04-.92-1.788l7.48-10.471c1.07-1.497 0-3.578-1.842-3.578H1.237c-.92 0-1.456-1.04-.92-1.788L10.013.474c.214-.297.556-.474.92-.474h28.894c.92 0 1.456 1.04.92 1.788l-7.48 10.471c-1.07 1.498 0 3.579 1.842 3.579h11.377c.943 0 1.473 1.088.89 1.83L25.947 44.94z"/>
  </g>
</svg>
