<svg xmlns="http://www.w3.org/2000/svg" viewBox="0 0 512 512">
  <defs>
    <linearGradient id="card" x1="0" y1="0" x2="1" y2="1">
      <stop stop-color="#233d3b"/>
      <stop offset="1" stop-color="#111d1d"/>
    </linearGradient>
    <linearGradient id="teal" x1="0" y1="0" x2="0" y2="1">
      <stop stop-color="#72eee0"/>
      <stop offset="1" stop-color="#2ec4b6"/>
    </linearGradient>
  </defs>
  <rect x="8" y="8" width="496" height="496" rx="108" fill="#101819"/>
  <rect x="94" y="95" width="265" height="326" rx="28" transform="rotate(-15 226 258)" fill="#18302e" stroke="#2e7972" stroke-width="12"/>
  <rect x="153" y="95" width="265" height="326" rx="28" transform="rotate(15 286 258)" fill="#18302e" stroke="#2e7972" stroke-width="12"/>
  <rect x="123" y="81" width="266" height="350" rx="28" fill="url(#card)" stroke="url(#teal)" stroke-width="15"/>
  <path d="M160 254Q256 141 352 254Q256 367 160 254Z" fill="#e8f1e7"/>
  <circle cx="256" cy="254" r="54" fill="#2ec4b6"/>
  <path d="M256 211Q230 254 256 297Q282 254 256 211Z" fill="#102326"/>
  <circle cx="273" cy="236" r="9" fill="#e8f1e7"/>
  <path d="M233 118h46M233 393h46" stroke="#72eee0" stroke-width="12" stroke-linecap="round"/>
</svg>
